<svg width="27" height="25" viewBox="0 0 27 25" fill="none" xmlns="http://www.w3.org/2000/svg">
<path d="M17.5833 8.31592C19.3072 8.31592 20.9605 8.94806 22.1794 10.0733C23.3984 11.1985 24.0833 12.7246 24.0833 14.3159V21.3159H19.7499V14.3159C19.7499 13.7855 19.5216 13.2768 19.1153 12.9017C18.709 12.5266 18.1579 12.3159 17.5833 12.3159C17.0086 12.3159 16.4575 12.5266 16.0512 12.9017C15.6449 13.2768 15.4166 13.7855 15.4166 14.3159V21.3159H11.0833V14.3159C11.0833 12.7246 11.7681 11.1985 12.9871 10.0733C14.206 8.94806 15.8593 8.31592 17.5833 8.31592Z" stroke="black" stroke-width="2" stroke-linecap="round" stroke-linejoin="round"/>
<path d="M6.75008 9.31592H2.41675V21.3159H6.75008V9.31592Z" stroke="black" stroke-width="2" stroke-linecap="round" stroke-linejoin="round"/>
<path d="M4.58341 6.31592C5.78003 6.31592 6.75008 5.42049 6.75008 4.31592C6.75008 3.21135 5.78003 2.31592 4.58341 2.31592C3.3868 2.31592 2.41675 3.21135 2.41675 4.31592C2.41675 5.42049 3.3868 6.31592 4.58341 6.31592Z" stroke="black" stroke-width="2" stroke-linecap="round" stroke-linejoin="round"/>
</svg>
