<svg width="27" height="25" viewBox="0 0 27 25" fill="none" xmlns="http://www.w3.org/2000/svg">
<path d="M18.6667 2.31592H7.83341C4.84187 2.31592 2.41675 4.55449 2.41675 7.31592V17.3159C2.41675 20.0773 4.84187 22.3159 7.83341 22.3159H18.6667C21.6583 22.3159 24.0834 20.0773 24.0834 17.3159V7.31592C24.0834 4.55449 21.6583 2.31592 18.6667 2.31592Z" stroke="black" stroke-width="2" stroke-linecap="round" stroke-linejoin="round"/>
<path d="M17.5834 11.6857C17.7171 12.518 17.5631 13.3679 17.1433 14.1147C16.7235 14.8615 16.0593 15.4671 15.2452 15.8454C14.431 16.2237 13.5084 16.3553 12.6085 16.2217C11.7086 16.088 10.8773 15.6958 10.2328 15.1009C9.58833 14.506 9.16347 13.7386 9.01866 12.9079C8.87386 12.0773 9.01649 11.2256 9.42628 10.4741C9.83606 9.72258 10.4921 9.10947 11.3012 8.72197C12.1102 8.33447 13.031 8.19232 13.9326 8.31573C14.8523 8.44162 15.7037 8.83719 16.3611 9.44404C17.0185 10.0509 17.447 10.8368 17.5834 11.6857Z" stroke="black" stroke-width="2" stroke-linecap="round" stroke-linejoin="round"/>
<path d="M19.2083 6.81592H19.2183" stroke="black" stroke-width="2" stroke-linecap="round" stroke-linejoin="round"/>
</svg>
