<svg width="25" height="23" viewBox="0 0 25 23" fill="none" xmlns="http://www.w3.org/2000/svg">
<path d="M23.0833 16.236V19.236C23.0845 19.5145 23.0227 19.7902 22.9019 20.0454C22.781 20.3005 22.6037 20.5296 22.3814 20.7179C22.1591 20.9062 21.8966 21.0495 21.6108 21.1387C21.325 21.2279 21.0221 21.2611 20.7216 21.236C17.388 20.9017 14.1859 19.8502 11.3725 18.166C8.75495 16.6307 6.53575 14.5822 4.87247 12.166C3.04161 9.55722 1.90223 6.58701 1.54663 3.49601C1.51956 3.21948 1.55517 2.94078 1.65118 2.67764C1.74719 2.4145 1.9015 2.1727 2.1043 1.96764C2.30709 1.76257 2.55392 1.59872 2.82908 1.48654C3.10423 1.37435 3.40167 1.31628 3.70247 1.31601H6.95247C7.47822 1.31124 7.98791 1.48309 8.38654 1.79955C8.78518 2.116 9.04555 2.55546 9.11913 3.03601C9.25631 3.99608 9.51071 4.93874 9.87747 5.84601C10.0232 6.20394 10.0548 6.59293 9.96837 6.9669C9.88197 7.34086 9.68124 7.68413 9.38997 7.95602L8.01414 9.22601C9.55632 11.7296 11.802 13.8025 14.5141 15.226L15.89 13.956C16.1845 13.6872 16.5564 13.5019 16.9615 13.4221C17.3666 13.3424 17.7881 13.3715 18.1758 13.506C19.1587 13.8446 20.1799 14.0794 21.22 14.206C21.7462 14.2745 22.2268 14.5192 22.5704 14.8935C22.9139 15.2678 23.0965 15.7456 23.0833 16.236Z" stroke="black" stroke-width="2" stroke-linecap="round" stroke-linejoin="round"/>
</svg>
