<svg width="212" height="186" viewBox="0 0 212 186" fill="none" xmlns="http://www.w3.org/2000/svg">
<path d="M114 4H98C96.8954 4 96 4.89543 96 6V22C96 23.1046 96.8954 24 98 24H114C115.105 24 116 23.1046 116 22V6C116 4.89543 115.105 4 114 4Z" fill="#2F9E41"/>
<path d="M138 4H122C120.895 4 120 4.89543 120 6V22C120 23.1046 120.895 24 122 24H138C139.105 24 140 23.1046 140 22V6C140 4.89543 139.105 4 138 4Z" fill="#2F9E41"/>
<path d="M90 28H74C72.8954 28 72 28.8954 72 30V46C72 47.1046 72.8954 48 74 48H90C91.1046 48 92 47.1046 92 46V30C92 28.8954 91.1046 28 90 28Z" fill="#2F9E41"/>
<path d="M114 28H98C96.8954 28 96 28.8954 96 30V46C96 47.1046 96.8954 48 98 48H114C115.105 48 116 47.1046 116 46V30C116 28.8954 115.105 28 114 28Z" fill="#2F9E41"/>
<path d="M90 52H74C72.8954 52 72 52.8954 72 54V70C72 71.1046 72.8954 72 74 72H90C91.1046 72 92 71.1046 92 70V54C92 52.8954 91.1046 52 90 52Z" fill="#2F9E41"/>
<path d="M114 52H98C96.8954 52 96 52.8954 96 54V70C96 71.1046 96.8954 72 98 72H114C115.105 72 116 71.1046 116 70V54C116 52.8954 115.105 52 114 52Z" fill="#2F9E41"/>
<path d="M138 52H122C120.895 52 120 52.8954 120 54V70C120 71.1046 120.895 72 122 72H138C139.105 72 140 71.1046 140 70V54C140 52.8954 139.105 52 138 52Z" fill="#2F9E41"/>
<path d="M90 76H74C72.8954 76 72 76.8954 72 78V94C72 95.1046 72.8954 96 74 96H90C91.1046 96 92 95.1046 92 94V78C92 76.8954 91.1046 76 90 76Z" fill="#2F9E41"/>
<path d="M114 76H98C96.8954 76 96 76.8954 96 78V94C96 95.1046 96.8954 96 98 96H114C115.105 96 116 95.1046 116 94V78C116 76.8954 115.105 76 114 76Z" fill="#2F9E41"/>
<path d="M82 25C88.0751 25 93 20.0751 93 14C93 7.92487 88.0751 3 82 3C75.9249 3 71 7.92487 71 14C71 20.0751 75.9249 25 82 25Z" fill="#CD191E"/>
<path d="M34.031 130V110.012H38.2693V130H34.031Z" fill="black"/>
<path d="M61.061 130H55.6743L46.979 114.879H46.856C47.0291 117.549 47.1157 119.454 47.1157 120.594V130H43.3286V110.012H48.6743L57.3559 124.983H57.4516C57.3149 122.385 57.2465 120.548 57.2465 119.473V110.012H61.061L61.061 130Z" fill="black"/>
<path d="M77.877 124.45C77.877 126.255 77.2253 127.677 75.9219 128.716C74.6276 129.755 72.8229 130.274 70.5078 130.274C68.375 130.274 66.4883 129.873 64.8476 129.071V125.134C66.1965 125.735 67.3359 126.159 68.2656 126.405C69.2044 126.651 70.0612 126.774 70.8359 126.774C71.7656 126.774 72.4765 126.597 72.9687 126.241C73.47 125.886 73.7206 125.357 73.7206 124.655C73.7206 124.263 73.6113 123.917 73.3925 123.616C73.1738 123.306 72.8502 123.01 72.4218 122.727C72.0026 122.445 71.1412 121.994 69.8378 121.374C68.6165 120.8 67.7005 120.248 67.0898 119.72C66.4791 119.191 65.9915 118.576 65.6269 117.874C65.2623 117.172 65.08 116.352 65.08 115.413C65.08 113.645 65.677 112.255 66.871 111.243C68.0742 110.231 69.733 109.726 71.8476 109.726C72.8867 109.726 73.8756 109.849 74.8144 110.095C75.7624 110.341 76.7513 110.687 77.7812 111.134L76.414 114.429C75.3476 113.991 74.4635 113.686 73.7617 113.513C73.069 113.34 72.3854 113.253 71.7109 113.253C70.9089 113.253 70.2936 113.44 69.8652 113.813C69.4368 114.187 69.2227 114.675 69.2227 115.276C69.2227 115.65 69.3093 115.978 69.4824 116.261C69.6556 116.534 69.929 116.803 70.3027 117.067C70.6856 117.323 71.5834 117.787 72.9961 118.462C74.8646 119.355 76.1452 120.253 76.8379 121.155C77.5307 122.049 77.877 123.147 77.877 124.45Z" fill="black"/>
<path d="M89.211 130H84.9727V113.539H79.545V110.012H94.639V113.539H89.2113L89.211 130Z" fill="black"/>
<path d="M97.742 130V110.012H101.98V130H97.742Z" fill="black"/>
<path d="M114.75 130H110.512V113.539H105.084V110.012H120.178V113.539H114.75L114.75 130Z" fill="black"/>
<path d="M139.55 110.01V122.944C139.55 124.421 139.217 125.715 138.552 126.827C137.896 127.939 136.943 128.791 135.695 129.383C134.446 129.976 132.969 130.272 131.265 130.272C128.695 130.272 126.698 129.616 125.277 128.303C123.855 126.982 123.144 125.177 123.144 122.889V110.01H127.368V122.246C127.368 123.786 127.678 124.917 128.298 125.637C128.918 126.357 129.943 126.717 131.374 126.717C132.76 126.717 133.762 126.357 134.382 125.637C135.011 124.908 135.325 123.768 135.325 122.219V110.01L139.55 110.01Z" fill="black"/>
<path d="M152.16 130H147.922V113.539H142.494V110.012H157.588V113.539H152.16L152.16 130Z" fill="black"/>
<path d="M178.83 119.98C178.83 123.289 178.01 125.831 176.369 127.609C174.728 129.386 172.377 130.275 169.314 130.275C166.252 130.275 163.9 129.386 162.26 127.609C160.619 125.831 159.799 123.279 159.799 119.953C159.799 116.626 160.619 114.087 162.26 112.337C163.909 110.578 166.27 109.699 169.342 109.699C172.413 109.699 174.76 110.583 176.383 112.351C178.014 114.119 178.83 116.662 178.83 119.98ZM164.242 119.98C164.242 122.213 164.666 123.895 165.514 125.025C166.361 126.155 167.628 126.72 169.314 126.72C172.696 126.72 174.387 124.473 174.387 119.98C174.387 115.477 172.705 113.226 169.342 113.226C167.656 113.226 166.384 113.796 165.527 114.935C164.67 116.065 164.242 117.747 164.242 119.98Z" fill="black"/>
<path d="M52.146 154H47.9761V134.012H59.4331V137.485H52.146V142.639H58.9272V146.098H52.146V154Z" fill="black"/>
<path d="M74.855 154H63.343V134.012H74.855V137.485H67.5816V141.874H74.3492V145.346H67.5816V150.5H74.855V154Z" fill="black"/>
<path d="M95.623 143.81C95.623 147.101 94.6842 149.621 92.8066 151.371C90.9381 153.121 88.2356 153.996 84.6992 153.996H79.039V134.008H85.3144C88.5774 134.008 91.1112 134.869 92.916 136.592C94.7206 138.314 95.623 140.72 95.623 143.81ZM91.2207 143.92C91.2207 139.627 89.3248 137.48 85.5332 137.48H83.2773V150.496H85.0957C89.179 150.496 91.2207 148.304 91.2207 143.92Z" fill="black"/>
<path d="M111.277 154H99.765V134.012H111.277V137.485H104.004V141.874H110.771V145.346H104.004V150.5H111.277V154Z" fill="black"/>
<path d="M119.699 142.88H121.066C122.406 142.88 123.395 142.657 124.033 142.21C124.671 141.764 124.99 141.062 124.99 140.105C124.99 139.157 124.662 138.482 124.006 138.081C123.359 137.68 122.351 137.48 120.984 137.48H119.699L119.699 142.88ZM119.699 146.325V153.995H115.461V134.007H121.285C124.001 134.007 126.011 134.504 127.314 135.498C128.618 136.482 129.269 137.981 129.269 139.996C129.269 141.171 128.946 142.219 128.299 143.14C127.651 144.051 126.735 144.767 125.551 145.287C128.558 149.78 130.518 152.683 131.429 153.996H126.726L121.955 146.326L119.699 146.325Z" fill="black"/>
<path d="M146.18 154L144.731 149.242H137.444L135.994 154H131.428L138.483 133.93H143.664L150.746 154H146.18ZM143.719 145.688C142.379 141.376 141.623 138.938 141.45 138.373C141.286 137.808 141.167 137.362 141.094 137.033C140.793 138.2 139.932 141.085 138.51 145.688L143.719 145.688Z" fill="black"/>
<path d="M153.25 154V134.012H157.488V150.5H165.596V154H153.25Z" fill="black"/>
<path d="M67.5557 180H65.9253V165.009H71.8213V166.465H67.5557V172.063H71.5752V173.54H67.5557V180ZM76.6816 168.536C77.7207 168.536 78.4624 168.868 78.9067 169.531C79.3511 170.194 79.5732 171.154 79.5732 172.412V180H78.3735L78.1377 178.4H78.0967C77.9189 178.783 77.707 179.111 77.4609 179.385C77.2148 179.651 76.9346 179.856 76.6201 180C76.3057 180.137 75.9434 180.205 75.5332 180.205C74.9521 180.205 74.4771 180.051 74.1079 179.744C73.7388 179.436 73.4653 179.033 73.2876 178.534C73.1099 178.028 73.021 177.484 73.021 176.903C73.021 175.789 73.3423 174.924 73.9849 174.309C74.6274 173.694 75.54 173.359 76.7227 173.304L78.0044 173.222V172.453C78.0044 171.551 77.8813 170.891 77.6353 170.474C77.3892 170.057 76.9927 169.849 76.4458 169.849C76.1313 169.849 75.7998 169.903 75.4512 170.013C75.1094 170.122 74.7368 170.296 74.3335 170.536L73.8311 169.346C74.2549 169.073 74.7061 168.871 75.1846 168.741C75.6699 168.604 76.1689 168.536 76.6816 168.536ZM78.0249 174.381L76.979 174.453C76.186 174.5 75.5947 174.726 75.2051 175.129C74.8223 175.526 74.6309 176.104 74.6309 176.862C74.6309 177.566 74.7573 178.086 75.0103 178.421C75.2632 178.756 75.6118 178.923 76.0562 178.923C76.6782 178.923 77.1602 178.623 77.502 178.021C77.8506 177.419 78.0249 176.589 78.0249 175.529V174.381ZM86.064 168.546C86.2212 168.546 86.3784 168.56 86.5356 168.587C86.6929 168.608 86.8569 168.646 87.0278 168.7L86.7817 170.32C86.6587 170.266 86.5288 170.228 86.3921 170.208C86.2554 170.187 86.1084 170.177 85.9512 170.177C85.6436 170.177 85.3599 170.279 85.1001 170.484C84.8472 170.683 84.6284 170.963 84.4438 171.325C84.2593 171.688 84.1157 172.108 84.0132 172.586C83.9175 173.065 83.873 173.581 83.8799 174.135V180H82.3008V168.741H83.5312L83.7466 170.741H83.8491C84.0063 170.31 84.1909 169.931 84.4028 169.603C84.6147 169.274 84.8574 169.018 85.1309 168.833C85.4111 168.642 85.7222 168.546 86.064 168.546ZM92.3599 168.546C92.5171 168.546 92.6743 168.56 92.8315 168.587C92.9888 168.608 93.1528 168.646 93.3237 168.7L93.0776 170.32C92.9546 170.266 92.8247 170.228 92.688 170.208C92.5513 170.187 92.4043 170.177 92.2471 170.177C91.9395 170.177 91.6558 170.279 91.396 170.484C91.1431 170.683 90.9243 170.963 90.7397 171.325C90.5552 171.688 90.4116 172.108 90.3091 172.586C90.2134 173.065 90.1689 173.581 90.1758 174.135V180H88.5967V168.741H89.8271L90.0425 170.741H90.145C90.3022 170.31 90.4868 169.931 90.6987 169.603C90.9106 169.274 91.1533 169.018 91.4268 168.833C91.707 168.642 92.0181 168.546 92.3599 168.546ZM101.875 174.36C101.875 175.249 101.8 176.052 101.65 176.77C101.5 177.488 101.271 178.103 100.963 178.616C100.655 179.128 100.266 179.521 99.7939 179.795C99.3223 180.068 98.7651 180.205 98.1226 180.205C97.5073 180.205 96.9673 180.068 96.5024 179.795C96.0376 179.521 95.6514 179.132 95.3438 178.626C95.0361 178.113 94.8037 177.498 94.6465 176.78C94.4893 176.056 94.4106 175.249 94.4106 174.36C94.4106 173.116 94.5439 172.063 94.8105 171.202C95.0771 170.334 95.4873 169.674 96.041 169.223C96.5947 168.765 97.2988 168.536 98.1533 168.536C98.9531 168.536 99.6299 168.758 100.184 169.203C100.737 169.64 101.158 170.293 101.445 171.161C101.732 172.022 101.875 173.089 101.875 174.36ZM96.0205 174.36C96.0205 175.338 96.0957 176.158 96.2461 176.821C96.3965 177.484 96.6289 177.983 96.9434 178.318C97.2646 178.653 97.6714 178.821 98.1636 178.821C98.6489 178.821 99.0454 178.657 99.353 178.329C99.6675 178 99.8999 177.508 100.05 176.852C100.201 176.189 100.276 175.358 100.276 174.36C100.276 173.383 100.201 172.566 100.05 171.91C99.8999 171.247 99.6675 170.751 99.353 170.423C99.0454 170.088 98.6455 169.92 98.1533 169.92C97.4014 169.92 96.8579 170.293 96.5229 171.038C96.188 171.776 96.0205 172.884 96.0205 174.36ZM110.858 168.741V180H109.597L109.422 178.4H109.31C109.159 178.77 108.961 179.091 108.715 179.364C108.476 179.631 108.199 179.839 107.884 179.99C107.57 180.133 107.218 180.205 106.828 180.205C106.172 180.205 105.642 180.041 105.239 179.713C104.842 179.385 104.552 178.917 104.367 178.308C104.189 177.7 104.101 176.975 104.101 176.134V168.741H105.68V175.837C105.68 176.849 105.796 177.594 106.028 178.072C106.268 178.551 106.63 178.79 107.115 178.79C107.642 178.79 108.062 178.646 108.376 178.359C108.691 178.065 108.92 177.625 109.063 177.037C109.207 176.442 109.279 175.69 109.279 174.781V168.741H110.858ZM117.687 168.536C118.767 168.536 119.584 169.021 120.138 169.992C120.698 170.956 120.979 172.409 120.979 174.35C120.979 175.601 120.852 176.664 120.599 177.539C120.353 178.407 119.991 179.07 119.512 179.528C119.034 179.979 118.453 180.205 117.769 180.205C117.386 180.205 117.031 180.133 116.703 179.99C116.375 179.839 116.084 179.631 115.831 179.364C115.578 179.091 115.366 178.773 115.195 178.411H115.124C115.137 178.684 115.151 178.947 115.165 179.2C115.185 179.453 115.195 179.692 115.195 179.918V185.024H113.616V168.741H114.898L115.093 170.392H115.185C115.376 169.975 115.595 169.63 115.841 169.356C116.094 169.083 116.375 168.878 116.682 168.741C116.99 168.604 117.325 168.536 117.687 168.536ZM117.349 169.9C116.87 169.9 116.47 170.05 116.149 170.351C115.834 170.652 115.595 171.106 115.431 171.715C115.274 172.316 115.195 173.075 115.195 173.991V174.535C115.195 175.505 115.274 176.309 115.431 176.944C115.595 177.58 115.838 178.052 116.159 178.359C116.487 178.667 116.891 178.821 117.369 178.821C117.807 178.821 118.172 178.664 118.466 178.349C118.767 178.035 118.993 177.549 119.143 176.893C119.293 176.237 119.369 175.396 119.369 174.371C119.369 172.887 119.211 171.773 118.897 171.028C118.589 170.276 118.073 169.9 117.349 169.9ZM124.824 168.741V180H123.255V168.741H124.824ZM124.065 164.517C124.386 164.517 124.619 164.619 124.762 164.824C124.913 165.029 124.988 165.313 124.988 165.675C124.988 166.031 124.909 166.311 124.752 166.516C124.595 166.721 124.366 166.824 124.065 166.824C123.771 166.824 123.539 166.721 123.368 166.516C123.197 166.311 123.111 166.031 123.111 165.675C123.111 165.299 123.193 165.012 123.357 164.814C123.521 164.616 123.757 164.517 124.065 164.517ZM129.161 180H127.582V164.045H129.161V180ZM133.468 164.045V168.68C133.468 168.98 133.458 169.271 133.437 169.551C133.423 169.825 133.396 170.084 133.355 170.331H133.468C133.604 169.961 133.792 169.644 134.032 169.377C134.278 169.11 134.562 168.905 134.883 168.762C135.204 168.611 135.549 168.536 135.918 168.536C136.547 168.536 137.063 168.683 137.467 168.977C137.87 169.264 138.167 169.691 138.359 170.259C138.55 170.819 138.646 171.517 138.646 172.351V180H137.067V172.658C137.067 171.688 136.951 170.994 136.718 170.577C136.486 170.16 136.11 169.951 135.59 169.951C135.112 169.951 134.715 170.098 134.401 170.392C134.086 170.686 133.851 171.141 133.693 171.756C133.543 172.364 133.468 173.147 133.468 174.104V180H131.889V164.045H133.468ZM144.378 168.536C145.417 168.536 146.159 168.868 146.603 169.531C147.047 170.194 147.27 171.154 147.27 172.412V180H146.07L145.834 178.4H145.793C145.615 178.783 145.403 179.111 145.157 179.385C144.911 179.651 144.631 179.856 144.316 180C144.002 180.137 143.64 180.205 143.229 180.205C142.648 180.205 142.173 180.051 141.804 179.744C141.435 179.436 141.162 179.033 140.984 178.534C140.806 178.028 140.717 177.484 140.717 176.903C140.717 175.789 141.039 174.924 141.681 174.309C142.324 173.694 143.236 173.359 144.419 173.304L145.701 173.222V172.453C145.701 171.551 145.578 170.891 145.332 170.474C145.085 170.057 144.689 169.849 144.142 169.849C143.828 169.849 143.496 169.903 143.147 170.013C142.806 170.122 142.433 170.296 142.03 170.536L141.527 169.346C141.951 169.073 142.402 168.871 142.881 168.741C143.366 168.604 143.865 168.536 144.378 168.536ZM145.721 174.381L144.675 174.453C143.882 174.5 143.291 174.726 142.901 175.129C142.519 175.526 142.327 176.104 142.327 176.862C142.327 177.566 142.454 178.086 142.707 178.421C142.959 178.756 143.308 178.923 143.752 178.923C144.375 178.923 144.856 178.623 145.198 178.021C145.547 177.419 145.721 176.589 145.721 175.529V174.381Z" fill="black"/>
</svg>
